<?xml version="1.0" encoding="utf-8"?>
<!-- Generator: Adobe Illustrator 15.1.0, SVG Export Plug-In . SVG Version: 6.00 Build 0)  -->
<!DOCTYPE svg PUBLIC "-//W3C//DTD SVG 1.1//EN" "http://www.w3.org/Graphics/SVG/1.1/DTD/svg11.dtd">
<svg version="1.1" id="Layer_1" xmlns="http://www.w3.org/2000/svg" xmlns:xlink="http://www.w3.org/1999/xlink" x="0px" y="0px"
	 width="288px" height="288px" viewBox="0 0 288 288" enable-background="new 0 0 288 288" xml:space="preserve">
<g>
	<defs>
		<rect id="SVGID_1_" x="-116.125" y="-121.125" width="538.25" height="538.25"/>
	</defs>
	<clipPath id="SVGID_2_">
		<use xlink:href="#SVGID_1_"  overflow="visible"/>
	</clipPath>
	<g clip-path="url(#SVGID_2_)">
		<defs>
			<rect id="SVGID_3_" x="-116.125" y="-121.125" width="538.25" height="538.25"/>
		</defs>
		<clipPath id="SVGID_4_">
			<use xlink:href="#SVGID_3_"  overflow="visible"/>
		</clipPath>
	</g>
	<g clip-path="url(#SVGID_2_)">
		<defs>
			<path id="SVGID_5_" d="M77.159,207.63c-37.097-37.095-37.097-97.454,0-134.547c37.094-37.096,97.452-37.096,134.546,0
				c29.374,29.375,36.342,73.91,17.329,110.819l-4.289,8.324l2.424,9.043l7.988,29.814l-29.812-7.99l-9.044-2.422l-8.324,4.289
				c-13.863,7.141-28.804,10.617-43.612,10.617C119.75,235.577,95.5,225.97,77.159,207.63 M60.022,55.946
				c-46.62,46.618-46.618,122.2,0,168.82c37.634,37.636,94.142,44.868,139.053,21.736l70.357,18.853l-18.853-70.357
				c23.131-44.909,15.896-101.418-21.737-139.052c-23.308-23.309-53.86-34.963-84.409-34.963
				C113.882,20.983,83.33,32.637,60.022,55.946"/>
		</defs>
		<use xlink:href="#SVGID_5_"  overflow="visible" fill="#FFFFFF"/>
		<clipPath id="SVGID_6_">
			<use xlink:href="#SVGID_5_"  overflow="visible"/>
		</clipPath>
		<g clip-path="url(#SVGID_6_)">
			<g>
				<defs>
					<rect id="SVGID_7_" x="-21.189" y="72.628" width="333.972" height="253.679"/>
				</defs>
				<use xlink:href="#SVGID_7_"  overflow="visible" fill="#FFFFFF"/>
				<clipPath id="SVGID_8_">
					<use xlink:href="#SVGID_7_"  overflow="visible"/>
				</clipPath>
				<g clip-path="url(#SVGID_8_)">
					<defs>
						<path id="SVGID_9_" d="M71.67,326.308l0.065-0.016c-1.248-7.493,36.466-6.878,33.354-14.436
							c-17.652-42.88-9.091-120.556,45.359-156.388c54.636-35.885,115.05-40.12,159.199-22.09c1.067,0.44,2.085,0.944,3.135,1.408
							l-3.193-12.296c-35.55-20.729-75.082-35.67-115.912-43.445c-77.849-14.77-154.94-2.928-214.867,24.103l57.606,221.81
							c5.799-0.785,11.654-1.155,17.527-0.997C60.153,324.16,66.101,324.992,71.67,326.308"/>
					</defs>
					<use xlink:href="#SVGID_9_"  overflow="visible" fill="#FFFFFF"/>
					<clipPath id="SVGID_10_">
						<use xlink:href="#SVGID_9_"  overflow="visible"/>
					</clipPath>
					<polygon clip-path="url(#SVGID_10_)" fill="#FFFFFF" points="-84.947,80.833 291.679,-16.974 376.54,309.752 -0.086,407.558 
											"/>
				</g>
			</g>
		</g>
		<g clip-path="url(#SVGID_6_)">
			<g>
				<defs>
					<rect id="SVGID_11_" x="-32.238" y="-15.092" width="376.383" height="327.681"/>
				</defs>
				<use xlink:href="#SVGID_11_"  overflow="visible" fill="#FFFFFF"/>
				<clipPath id="SVGID_12_">
					<use xlink:href="#SVGID_11_"  overflow="visible"/>
				</clipPath>
				<g clip-path="url(#SVGID_12_)">
					<defs>
						<path id="SVGID_13_" d="M-32.239,60.604L8.818,218.688c36.487,11.381,48.266,16.793,71.544,46.06
							c10.099,12.693,19.771,30.828,16.254,47.843l247.529-57.045L275.12-10.229c-5.298-1.72-10.594-3.327-15.886-4.863
							L-32.239,60.604z"/>
					</defs>
					<use xlink:href="#SVGID_13_"  overflow="visible" fill="#FFFFFF"/>
					<clipPath id="SVGID_14_">
						<use xlink:href="#SVGID_13_"  overflow="visible"/>
					</clipPath>
					<polygon clip-path="url(#SVGID_14_)" fill="#FFFFFF" points="-111.969,5.614 320.362,-106.66 423.875,291.887 -8.456,404.16 
											"/>
				</g>
			</g>
		</g>
		<g clip-path="url(#SVGID_6_)">
			<g>
				<defs>
					<rect id="SVGID_15_" x="-32.238" y="-0.538" width="376.383" height="312.381"/>
				</defs>
				<use xlink:href="#SVGID_15_"  overflow="visible" fill="#FFFFFF"/>
				<clipPath id="SVGID_16_">
					<use xlink:href="#SVGID_15_"  overflow="visible"/>
				</clipPath>
				<g clip-path="url(#SVGID_16_)">
					<defs>
						<path id="SVGID_17_" d="M203.196-0.538L-32.239,60.604l63.014,242.631c35.675-11.029,69.701-3.453,96.591,8.608
							l216.779-56.297L288.74,42.21C262.698,25.685,234.019,11.203,203.196-0.538"/>
					</defs>
					<use xlink:href="#SVGID_17_"  overflow="visible" fill="#FFFFFF"/>
					<clipPath id="SVGID_18_">
						<use xlink:href="#SVGID_17_"  overflow="visible"/>
					</clipPath>
					<polygon clip-path="url(#SVGID_18_)" fill="#FFFFFF" points="-108.246,19.201 320.362,-92.106 420.152,292.104 -8.456,403.409 
											"/>
				</g>
			</g>
		</g>
	</g>
	<g clip-path="url(#SVGID_2_)">
		<defs>
			<path id="SVGID_19_" d="M105.842,171.02l1.13-4.222l-2.002-3.884c-8.866-17.217-5.619-37.992,8.083-51.692
				c17.305-17.307,45.461-17.307,62.764,0c17.304,17.303,17.304,45.456,0,62.76c-13.703,13.704-34.476,16.951-51.694,8.082
				l-3.882-1.998l-4.219,1.127l-13.908,3.729L105.842,171.02z M100.133,96.709C80.026,116.816,76.162,147.006,88.521,171
				l-10.073,37.588l37.591-10.07c23.993,12.355,54.18,8.495,74.289-11.614c24.907-24.905,24.907-65.286,0-90.194
				c-12.454-12.453-28.774-18.678-45.097-18.678S112.586,84.256,100.133,96.709"/>
		</defs>
		<use xlink:href="#SVGID_19_"  overflow="visible" fill="#FFFFFF"/>
		<clipPath id="SVGID_20_">
			<use xlink:href="#SVGID_19_"  overflow="visible"/>
		</clipPath>
		<g clip-path="url(#SVGID_20_)">
			<g>
				<defs>
					<rect id="SVGID_21_" x="55.288" y="105.622" width="178.428" height="135.53"/>
				</defs>
				<use xlink:href="#SVGID_21_"  overflow="visible" fill="#FFFFFF"/>
				<clipPath id="SVGID_22_">
					<use xlink:href="#SVGID_21_"  overflow="visible"/>
				</clipPath>
				<g clip-path="url(#SVGID_22_)">
					<defs>
						<path id="SVGID_23_" d="M184.104,241.152l-0.035-0.008c0.668-4.003-19.48-3.677-17.818-7.712
							c9.43-22.909,4.857-64.407-24.233-83.553c-29.192-19.171-61.467-21.431-85.053-11.802c-0.572,0.235-1.113,0.506-1.675,0.752
							l1.705-6.568c18.993-11.075,40.113-19.057,61.927-23.212c41.59-7.891,82.778-1.563,114.796,12.876l-30.777,118.503
							c-3.098-0.418-6.228-0.617-9.363-0.53C190.256,240.004,187.08,240.45,184.104,241.152"/>
					</defs>
					<use xlink:href="#SVGID_23_"  overflow="visible" fill="#FFFFFF"/>
					<clipPath id="SVGID_24_">
						<use xlink:href="#SVGID_23_"  overflow="visible"/>
					</clipPath>
					<polygon clip-path="url(#SVGID_24_)" fill="#FFFFFF" points="267.778,110.005 66.563,57.75 21.227,232.306 222.44,284.561 
											"/>
				</g>
			</g>
		</g>
		<g clip-path="url(#SVGID_20_)">
			<g>
				<defs>
					<rect id="SVGID_25_" x="38.533" y="58.757" width="201.083" height="175.067"/>
				</defs>
				<use xlink:href="#SVGID_25_"  overflow="visible" fill="#FFFFFF"/>
				<clipPath id="SVGID_26_">
					<use xlink:href="#SVGID_25_"  overflow="visible"/>
				</clipPath>
				<g clip-path="url(#SVGID_26_)">
					<defs>
						<path id="SVGID_27_" d="M239.616,99.198l-21.933,84.458c-19.492,6.081-25.785,8.971-38.223,24.608
							c-5.396,6.781-10.563,16.469-8.685,25.56L38.533,203.349L75.408,61.356c2.831-0.919,5.662-1.778,8.489-2.6L239.616,99.198z"/>
					</defs>
					<use xlink:href="#SVGID_27_"  overflow="visible" fill="#FFFFFF"/>
					<clipPath id="SVGID_28_">
						<use xlink:href="#SVGID_27_"  overflow="visible"/>
					</clipPath>
					<polygon clip-path="url(#SVGID_28_)" fill="#FFFFFF" points="282.215,69.818 51.239,9.836 -4.065,222.763 226.912,282.744 
											"/>
				</g>
			</g>
		</g>
		<g clip-path="url(#SVGID_20_)">
			<g>
				<defs>
					<rect id="SVGID_29_" x="38.533" y="66.532" width="201.083" height="166.894"/>
				</defs>
				<use xlink:href="#SVGID_29_"  overflow="visible" fill="#FFFFFF"/>
				<clipPath id="SVGID_30_">
					<use xlink:href="#SVGID_29_"  overflow="visible"/>
				</clipPath>
				<g clip-path="url(#SVGID_30_)">
					<defs>
						<path id="SVGID_31_" d="M113.836,66.532l125.78,32.666l-33.664,129.627c-19.06-5.891-37.236-1.845-51.604,4.601
							L38.533,203.349l29.6-113.977C82.046,80.544,97.367,72.806,113.836,66.532"/>
					</defs>
					<use xlink:href="#SVGID_31_"  overflow="visible" fill="#FFFFFF"/>
					<clipPath id="SVGID_32_">
						<use xlink:href="#SVGID_31_"  overflow="visible"/>
					</clipPath>
					<polygon clip-path="url(#SVGID_32_)" fill="#FFFFFF" points="280.227,77.079 51.239,17.611 -2.076,222.879 226.912,282.346 
											"/>
				</g>
			</g>
		</g>
	</g>
</g>
</svg>
